<svg id="レイヤー_1" data-name="レイヤー 1" xmlns="http://www.w3.org/2000/svg" viewBox="0 0 550 76"><defs><style>.cls-1{fill:#28be78;}</style></defs><title>アートボード 1</title><path class="cls-1" d="M37.2,18.14c2.93-2.1,2.78-4.52,1.75-6a4.16,4.16,0,0,0-5.77-.92,19.86,19.86,0,0,1-2.08,1.13l-.1,0a25.6,25.6,0,0,0,1-4.7,4.23,4.23,0,0,0-4-4.35,4,4,0,0,0-4.59,3.54,56.81,56.81,0,0,1-1.65,8.41c-4.29,1.06-8.63,1.14-11.37.23a4.54,4.54,0,0,0-4.66.7,4.14,4.14,0,0,0-1.13,4,4.31,4.31,0,0,0,3.18,3.13,23.45,23.45,0,0,0,10.85.52C14.84,32,10.3,38.73,5.9,45.23L5,46.61a4.32,4.32,0,0,0-.64,4.44,4.36,4.36,0,0,0,3.8,2.22h.23A5.39,5.39,0,0,0,13,50.63,211.26,211.26,0,0,0,28.15,22.06,32.09,32.09,0,0,0,37.2,18.14Z"/><path class="cls-1" d="M60.4,23.93c-4-2.42-9.91-3.55-15.8-3a4.29,4.29,0,0,0-4.22,4.52,3.47,3.47,0,0,0,3.83,3.3,21.62,21.62,0,0,1,13.12,3.53,3.75,3.75,0,0,0,2,.62A3.52,3.52,0,0,0,61,32.46a4.57,4.57,0,0,0,2.3-3.87A5.2,5.2,0,0,0,60.4,23.93Z"/><path class="cls-1" d="M46.74,54.41c-.05-1-.12-1.95-.19-2.88,0-.77-.11-1.52-.14-2.23-.09-2.46-.09-4.63-.09-6.54a14.79,14.79,0,0,1,.4-3.42l.11-.53a4,4,0,0,0-3.25-4.71,4,4,0,0,0-4.9,3.08,25.4,25.4,0,0,0-.43,5.76c0,.71.07,1.42.1,2.13.08,1.39.15,2.83.15,4.24V52a27.88,27.88,0,0,0-16.17,1.69c-4,1.76-6.27,4.77-6.36,8.25-.09,3.68,2.38,7.24,6.44,9.29h0a18.19,18.19,0,0,0,8.23,2,17.83,17.83,0,0,0,6.59-1.27c4.09-1.63,7.43-4.72,8.79-8.13A24.14,24.14,0,0,1,50.55,68a4.5,4.5,0,0,0,8-1.24,5.55,5.55,0,0,0-1.48-5.55A30.89,30.89,0,0,0,46.74,54.41ZM25.35,60.07A16.72,16.72,0,0,1,38,59.6v.25a1.11,1.11,0,0,1,0,.37,6.45,6.45,0,0,1-3.72,4.32,10.15,10.15,0,0,1-8.84,0,2.34,2.34,0,0,1-.09-4.48Z"/><path class="cls-1" d="M130.85,23.5a4.93,4.93,0,0,0-5-.28,3.92,3.92,0,0,0-2,3.35,3.39,3.39,0,0,0,1.92,3c6.23,3.45,10,9.79,12,14.5h0a4.07,4.07,0,0,0,3.8,2.69,4.79,4.79,0,0,0,1.75-.35,5,5,0,0,0,2.74-6.61C143.89,33.9,138.19,27.81,130.85,23.5Z"/><path class="cls-1" d="M138.07,12.93a3.93,3.93,0,0,0-5,2.31c-.42,1.22-.1,2.94,2.17,3.78h0a29.09,29.09,0,0,1,7.12,4.61,3,3,0,0,0,2.21,1,3,3,0,0,0,.72-.09,4,4,0,0,0,1.51-6.82A27.35,27.35,0,0,0,138.07,12.93Z"/><path class="cls-1" d="M115.72,27.2a11.7,11.7,0,0,0-9-2.63l-2.45.22a111.22,111.22,0,0,0,2.38-11.67,4.07,4.07,0,0,0-1.55-3.94,5,5,0,0,0-4.9-.48,4.36,4.36,0,0,0-2.64,3.68A91.42,91.42,0,0,1,95,25.69l-4.08.41c-1.49.13-2.88.17-4.23.21s-2.75.09-4.1.22a4.48,4.48,0,0,0-4.3,4.68c.09,2,1.54,4,4.58,4A55.84,55.84,0,0,0,92.08,34l.6-.1C88.82,45,83.55,54.65,77.82,61c-1.64,1.85-2.2,3.79-1.58,5.48a4.61,4.61,0,0,0,3.83,2.82,5.49,5.49,0,0,0,.7,0,6,6,0,0,0,4.85-2.68A125,125,0,0,0,102.1,32.62l.29,0c1.19-.15,2.32-.29,3.45-.36a4.5,4.5,0,0,1,3.63,1c1.2,1.1,1.79,3.09,1.79,6.08,0,4.28-.71,10.36-2.7,14.59-2.12,4.48-5.17,5.77-10.51,4.46a4.33,4.33,0,0,0-5.33,3.1c-.59,2.18.43,4.84,4,5.89C105.14,69.77,113.48,65.51,117,57c2.38-5.77,3.06-13.63,2.9-19.06C119.76,33.19,118.3,29.49,115.72,27.2Z"/><path class="cls-1" d="M145.12,5.19a3.88,3.88,0,0,0-4.84,2.5c-.38,1.26,0,3,2.31,3.76a29.57,29.57,0,0,1,7.21,4.28,3.08,3.08,0,0,0,2.16,1,2.69,2.69,0,0,0,.79-.11,4.07,4.07,0,0,0,2.69-3,4,4,0,0,0-1.3-3.91A28.24,28.24,0,0,0,145.12,5.19Z"/><path class="cls-1" d="M188.9,20.41c-7.59,1.9-15.86,5.4-22.52,8.22l-4.13,1.74a5.22,5.22,0,0,0-3.43,4.15,5,5,0,0,0,2,4.57c.92.66,2.89,1.58,5.82.24,2.77-1.3,5.4-2.6,7.95-3.87l3.87-1.91a83.51,83.51,0,0,1,12.12-5c3.57-1.07,15.74-4,22.43,3.66,4.23,4.87,2.74,11.74-3.8,17.5-5.84,5.19-14,8.42-24.86,9.89a5.49,5.49,0,0,0-4.58,3.28,4.58,4.58,0,0,0,.63,4.55,5.19,5.19,0,0,0,4.25,1.81,9,9,0,0,0,1.48-.13h0c12-2,21.43-6,28.77-12C221,52,224.6,45.83,225,39.78c.28-4.87-1.58-9.54-5.38-13.52C217.11,23.69,207.6,15.65,188.9,20.41Z"/><path class="cls-1" d="M281.89,27.49a5,5,0,0,0-5.24.26,44.06,44.06,0,0,1-6.15,2.63,72.43,72.43,0,0,1-3.42-6.68,53.27,53.27,0,0,0,6.57-2.56,3.8,3.8,0,0,0,2.26-3.22A4.41,4.41,0,0,0,274,14a4.66,4.66,0,0,0-4.87.07,32.88,32.88,0,0,1-5.09,2.2c-2-4.89-4.07-9.9-6.06-12.67a5.47,5.47,0,0,0-5.2-1.94A4.48,4.48,0,0,0,249,4.21c-.33.87-.37,2.3,1.25,4.12,2.27,2.51,4.11,6.12,5.93,9.92A46.62,46.62,0,0,1,246,18.7c-1.95-.14-3.44.42-4.2,1.59a4,4,0,0,0,.06,4A5.11,5.11,0,0,0,246.42,27a66.72,66.72,0,0,0,13.38-1.33c1.18,2.28,2.44,4.59,3.74,6.86a40.4,40.4,0,0,1-14.2,1.1c-2.16-.28-3.85.27-4.78,1.53a4.15,4.15,0,0,0-.27,4.2,5.15,5.15,0,0,0,4.41,2.94A61,61,0,0,0,268.16,40c.32.5.67.95,1,1.39s.52.67.76,1c2.51,3.37,3.47,5.46,2.93,6.38-.37.63-1.59.81-3.71.53-5.69-.69-16.17-1.36-22.51,1.9-4,2.06-6.29,5.58-6.15,9.67.17,4.9,3.73,9.53,9.06,11.78a35.8,35.8,0,0,0,14.18,3c.92,0,1.85,0,2.77-.12,2.59-.23,4.55-1.47,5.37-3.4a4.25,4.25,0,0,0-.51-4.32c-.65-.8-2.21-2-5.35-1.45a23,23,0,0,1-13.63-1.26c-2.17-.89-3.66-2.68-3.71-4.45a3.68,3.68,0,0,1,2.45-3.33C257,54.5,269,56.21,273.41,58.79c2.26,1.31,4.57,1.6,6.33.79a5.09,5.09,0,0,0,2.8-3.93c.92-4.76-2.24-11.51-5.57-15.76-.3-.43-.62-.84-.94-1.24s-.49-.62-.73-.95a52.79,52.79,0,0,0,6.43-2.7,4,4,0,0,0,2.32-3.47A4.57,4.57,0,0,0,281.89,27.49Z"/><path class="cls-1" d="M320.74,36l-.08,5.46v.09c0,2,1.93,3,3.83,3s3.82-1,3.82-3l-.08-4.32a18.21,18.21,0,0,1,5.87,3.32,3.29,3.29,0,0,0,2.12.91c1.7,0,3.14-1.79,3.14-3.91A4,4,0,0,0,337.28,34a24.44,24.44,0,0,0-8.2-2.67,3.27,3.27,0,0,0-1,.14l-.05-.83c10.42,0,12.91-.06,12.91-7,0-5.65-.29-8.15-7.06-8.33l-2.6,0c-1,0-2,0-3,0V13.11l12.16.08A3.41,3.41,0,0,0,344,9.71a3.18,3.18,0,0,0-3.49-3.23l-12.24.17V4.1a3.83,3.83,0,0,0-7.65,0V6.65l-12.24-.17h-.09a3.29,3.29,0,0,0-3.4,3.4,3.29,3.29,0,0,0,3.49,3.31h12.24v2.05c-1,0-2,0-2.93,0l-2.52,0c-4,.09-6.61,1.71-6.79,4.23-.08,1.2-.08,2.33-.08,3.42,0,4,0,7.39,7,7.57h2.53a49,49,0,0,1-12.56,7.59,3.42,3.42,0,0,0-2.38,3.21,4,4,0,0,0,3.83,3.91C308.94,45.25,315.65,40.52,320.74,36Zm-3.4-10.77c-1.93,0-2.21-.51-2.21-2.39,0-1.45.1-2.21,2.13-2.21l1.56,0c.65,0,1.38,0,2.18,0v4.68Zm14.37-.09c-.45,0-1,0-1.55,0l-2.19.05v-4.6h3.73c2.14.08,2.14.55,2.14,1.7C333.84,25,333.84,25,331.71,25.1Z"/><path class="cls-1" d="M375.65,36.08a35.54,35.54,0,0,1-11.53-5.58,38,38,0,0,0,6.81-13.14h3.29a3.25,3.25,0,0,0,3.31-3.4,3.3,3.3,0,0,0-3.4-3.48l-18.21.16c1.86-3.95,2.15-5.52,2.15-6.11,0-2.09-2.07-3.49-4-3.49a3.47,3.47,0,0,0-3.47,2.48,43.61,43.61,0,0,1-8.19,15.8A4,4,0,0,0,341.24,22,3.64,3.64,0,0,0,345,25.35a4.22,4.22,0,0,0,3.17-1.62l.44-.59.41-.54a38.76,38.76,0,0,0,5.22,8,36.91,36.91,0,0,1-12.3,6.34,3.51,3.51,0,0,0-2.72,3.3,4,4,0,0,0,3.91,4c2.07,0,9.87-3.38,16-8.68,5.81,5.26,12.4,8.51,15.23,8.51a4.25,4.25,0,0,0,4.33-4.25A3.9,3.9,0,0,0,375.65,36.08ZM362.84,17.36a27.25,27.25,0,0,1-3.94,8.26,26.87,26.87,0,0,1-4.72-8.26Z"/><path class="cls-1" d="M371.33,67.78l-26.19.08V62.93l16.92.08a3.32,3.32,0,1,0,0-6.62l-16.92.08V52.13l21.43.09a3.34,3.34,0,0,0,3.57-3.4,3.37,3.37,0,0,0-3.57-3.4H314.88a3.37,3.37,0,0,0-3.57,3.4,3.34,3.34,0,0,0,3.57,3.4l22.28-.09V67.86H328.4V58.51c0-2.45-2.1-3.74-4.17-3.74a3.81,3.81,0,0,0-4.08,3.74v9.35L310,67.78a3.49,3.49,0,1,0,0,7h61.38a3.34,3.34,0,0,0,3.57-3.4A3.5,3.5,0,0,0,371.33,67.78Z"/><path class="cls-1" d="M446,48.39c0-2.72,0-5.8-.12-8.13-.2-4.51-3.67-7.23-9.51-7.47-3.63-.09-6.91-.17-10.3-.17-4.24,0-8.37.09-12.25.17-6.76.19-9.35,4.19-9.51,7.56-.17,4.56-.6,30.46-.6,30.61a3.84,3.84,0,0,0,4.08,4,4.14,4.14,0,0,0,4.34-4.08c0-1.52,0-3.19,0-5s0-3.93,0-6h26V61.1c0,3.6-1.2,4.94-4.42,4.94a26.24,26.24,0,0,1-4.45-.59,4.46,4.46,0,0,0-1.08-.09,3.92,3.92,0,0,0-3.91,4.07c0,3.32,2.54,4.68,8.76,4.68,9.78,0,13.26-6,13.26-11.65l-.17-9C446,52.07,446,50.28,446,48.39Zm-33.79-5.14v-1c0-3.15,2.05-3.15,13.44-3.15,10.48,0,12.09,0,12.33,3.17l.06,1Zm25.94,6.29v4.08H412V49.54Z"/><path class="cls-1" d="M450.74,22.59l-2.57-.07c0-4.61-.08-9.45-.17-14.13-.08-4.29-4.1-7.47-9.75-7.73-3.82-.23-8.08-.34-13-.34s-9.16.11-13.1.34c-5.81.25-9.33,3.3-9.43,8.15-.08,4-.08,9.14-.08,13.7l-3,.08c-7.15.19-9.87,4.37-10,7.91,0,.63,0,1.27,0,1.9s0,1.28,0,1.92,0,1.33,0,2,0,1.06,0,1.55c.1,2.81,2.4,3.81,4.34,3.81,2.19,0,4.42-1.28,4.42-3.74V33.41c.24-2.79.77-3.85,5.37-3.93,7-.12,13.09-.17,18.7-.17,6.92,0,14.73.05,23.88.17,5.11.16,5.11.76,5.11,8.16v.17c0,2.45,2.2,3.57,4.25,3.57,4.84,0,4.84-3.63,4.84-6.55,0-1.38,0-2.81-.08-4C460.24,26,455.25,22.76,450.74,22.59Zm-15.57-11.3c-8.84,0-14.18,0-14.62,5-.16,1.88-.17,4.13-.17,6.14h-9.19V20.21c0-3.64.09-7,.26-9.59.07-1.33,1-2.91,3.5-3,3.56-.17,7.32-.17,10.95-.17s7.31,0,10.62.17c2.11.08,3.07,1.25,3.07,2.29v1.45c-.51,0-1.08,0-1.69,0C437.06,11.31,436.14,11.29,435.17,11.29Zm-6.46,8.07c0-1.19.25-1.53,5.86-1.53,1.77,0,3.76,0,5.19.07,0,.72,0,1.46,0,2.21s0,1.54.05,2.31H428.71Z"/><path class="cls-1" d="M497.41,24.31c0,2.63,2.16,3.83,4.17,3.83s4.16-1.2,4.16-3.83V20.66c0-2.43.86-3.16,3.83-3.24,4.12-.11,7.71-.17,11-.17,4.07,0,8.22.1,11.39.17,2.58.08,3.66.59,3.66,3.49v3.57c0,2.57,2.12,3.74,4.08,3.74a4.32,4.32,0,0,0,4.51-3.91V18.36c0-5-3.11-7.8-9-8.07-3.24-.17-6.95-.17-10.55-.17l.08-5.79V4.25A4.3,4.3,0,0,0,520.11,0c-2.21,0-4.59,1.33-4.59,4.25l.08,5.87c-3.21,0-6.34.08-9.27.17-8.92.26-8.92,6.22-8.92,9.77Z"/><path class="cls-1" d="M510.5,22.87a3.66,3.66,0,1,0,0,7.31H531a3.51,3.51,0,0,0,3.57-3.66A3.5,3.5,0,0,0,531,22.87Z"/><path class="cls-1" d="M541.45,55.26c-1.8,0-3.91,1-3.91,3.65v.94c0,5.16-.92,6.21-5.44,6.21-2.62,0-3.15-1.6-3.15-4.17,0-2.76.11-8.09.21-12.79.05-2.3.1-4.48.12-6.17l11.32.17h.08a3.48,3.48,0,0,0,3.49-3.74,3.56,3.56,0,0,0-3.57-3.82H502a3.78,3.78,0,0,0,0,7.56l18.87-.17c-.17,5.85-.25,18.7-.25,21.25,0,7.13,3.3,10,11.39,10,9.3,0,14-2.26,14-14.62C546,56.4,543.57,55.26,541.45,55.26Z"/><path class="cls-1" d="M498.34,41.91a19.34,19.34,0,0,0-4.64-13.33,5.25,5.25,0,0,1-1.31-3.25,4.92,4.92,0,0,1,.57-2.27c4.65-10,5-12.38,5-14,0-4-2.82-6.54-7.55-6.71-1.45-.08-3.1-.08-4.69-.08-7.73,0-12.4,0-12.58,8.32-.4,21.34-.42,54.88-.42,61.39,0,2.74,2.29,4,4.42,4a4,4,0,0,0,4.24-4V52c.85,2.87,4.68,3.12,6,3.12C493.63,55.09,498.34,49.42,498.34,41.91Zm-16.92-1.44c0-8.53.06-17.84.17-28.48,0-2.62,1.41-2.73,4.6-2.73s3.23.77,3.23,1.45A53.76,53.76,0,0,1,486,20.39a12.34,12.34,0,0,0-1.21,4.94,10.6,10.6,0,0,0,2.34,6.19,16,16,0,0,1,3.27,9.8c0,4.33-2,5.86-3.74,5.86a5.14,5.14,0,0,1-1-.12L485.4,47a3,3,0,0,0-.83-.14,3.41,3.41,0,0,0-3.15,2.72Z"/><path class="cls-1" d="M513,44a3.92,3.92,0,0,0-4,3.53c-1.34,8.78-4.56,15.46-15.9,19.53a4.61,4.61,0,0,0-3.4,4.32,4.14,4.14,0,0,0,4.41,4.16c.19,0,19.23-2.83,23.37-26.61a2.32,2.32,0,0,0,.1-.76C517.56,45.55,515.17,44,513,44Z"/></svg>